# xmcd
#
# Track frame offsets: 
#        150
#        22117
#        44929
#        69924
#        90898
#        114277
#        134764
#        158129
#        179429
#        198125
#        219570
#        237645
#        259426
#
# Disc length: 3743 seconds
#
# Revision: 0
# Processed by: cddbd v1.5.2PL0 Copyright (c) Steve Scherf et al.
# Submitted via: ExactAudioCopy v1.0b3
#
DISCID=c00e9d0d
DTITLE=群星 - DTS ES 正品 HIFI一号店CD2
DYEAR=2014
DGENRE=DTS ES
TTITLE0=孙露 - 梦的翅膀受了伤
TTITLE1=勤琴 - 我最亲爱的
TTITLE2=依雪 - 情歌好听却难唱
TTITLE3=雷婷 - 我还爱着你
TTITLE4=张玮伽 - 我们的歌谣
TTITLE5=甘雅丹 - 身披彩衣的姑娘
TTITLE6=任震昊&彭晓晖 - 拜拜爱过
TTITLE7=周虹 - 完成不了的爱
TTITLE8=小郡 - 男人不坏女人不爱
TTITLE9=陈思思 - 其实我的心没有走
TTITLE10=阿强 - 依然爱你
TTITLE11=江智民&周虹 - 我爱你胜过你爱我
TTITLE12=张玮伽 - 悲伤过的心还可以爱谁
EXTD=
EXTT0=
EXTT1=
EXTT2=
EXTT3=
EXTT4=
EXTT5=
EXTT6=
EXTT7=
EXTT8=
EXTT9=
EXTT10=
EXTT11=
EXTT12=
PLAYORDER=
